<mxfile host="Electron" modified="2024-07-06T07:52:01.791Z" agent="Mozilla/5.0 (Windows NT 10.0; Win64; x64) AppleWebKit/537.36 (KHTML, like Gecko) draw.io/24.2.5 Chrome/120.0.6099.109 Electron/28.1.0 Safari/537.36" etag="pKdTg0YzMQV5mSHYD01C" version="24.2.5" type="device">
  <diagram name="Page-1" id="IBlceshqKVCrjJ3YAyqM">
    <mxGraphModel dx="2074" dy="1205" grid="1" gridSize="10" guides="1" tooltips="1" connect="1" arrows="1" fold="1" page="1" pageScale="1" pageWidth="827" pageHeight="1169" math="0" shadow="0">
      <root>
        <mxCell id="0" />
        <mxCell id="1" parent="0" />
        <mxCell id="4HQ57-9MTVag5sjAasVg-13" value="" style="rounded=0;whiteSpace=wrap;html=1;fillColor=#dae8fc;strokeColor=#6c8ebf;" vertex="1" parent="1">
          <mxGeometry x="140" y="430" width="410" height="400" as="geometry" />
        </mxCell>
        <mxCell id="4HQ57-9MTVag5sjAasVg-1" value="SELF Header" style="rounded=0;whiteSpace=wrap;html=1;fillColor=#ffe6cc;strokeColor=#d79b00;" vertex="1" parent="1">
          <mxGeometry x="140" y="430" width="340" height="50" as="geometry" />
        </mxCell>
        <mxCell id="4HQ57-9MTVag5sjAasVg-2" value="SELF Segment Structure" style="rounded=0;whiteSpace=wrap;html=1;fillColor=#f8cecc;strokeColor=#b85450;" vertex="1" parent="1">
          <mxGeometry x="140" y="480" width="340" height="50" as="geometry" />
        </mxCell>
        <mxCell id="4HQ57-9MTVag5sjAasVg-3" value="SELF Segment Structure" style="rounded=0;whiteSpace=wrap;html=1;fillColor=#f8cecc;strokeColor=#b85450;" vertex="1" parent="1">
          <mxGeometry x="140" y="530" width="340" height="50" as="geometry" />
        </mxCell>
        <mxCell id="4HQ57-9MTVag5sjAasVg-4" value="......" style="rounded=0;whiteSpace=wrap;html=1;fillColor=#f8cecc;strokeColor=#b85450;" vertex="1" parent="1">
          <mxGeometry x="140" y="580" width="340" height="50" as="geometry" />
        </mxCell>
        <mxCell id="4HQ57-9MTVag5sjAasVg-5" value="" style="shape=curlyBracket;whiteSpace=wrap;html=1;rounded=1;flipH=1;labelPosition=right;verticalLabelPosition=middle;align=left;verticalAlign=middle;" vertex="1" parent="1">
          <mxGeometry x="480" y="480" width="20" height="150" as="geometry" />
        </mxCell>
        <mxCell id="4HQ57-9MTVag5sjAasVg-6" value="M" style="text;html=1;align=center;verticalAlign=middle;whiteSpace=wrap;rounded=0;" vertex="1" parent="1">
          <mxGeometry x="500" y="540" width="40" height="30" as="geometry" />
        </mxCell>
        <mxCell id="4HQ57-9MTVag5sjAasVg-7" value="ELF Header" style="rounded=0;whiteSpace=wrap;html=1;fillColor=#e1d5e7;strokeColor=#9673a6;" vertex="1" parent="1">
          <mxGeometry x="140" y="630" width="340" height="50" as="geometry" />
        </mxCell>
        <mxCell id="4HQ57-9MTVag5sjAasVg-8" value="ELF P&lt;span style=&quot;color: rgb(32, 33, 34); font-family: sans-serif; font-size: 14px; text-align: start; background-color: rgb(255, 255, 255);&quot;&gt;rogram Header&lt;/span&gt;" style="rounded=0;whiteSpace=wrap;html=1;fillColor=#fff2cc;strokeColor=#d6b656;" vertex="1" parent="1">
          <mxGeometry x="140" y="680" width="340" height="50" as="geometry" />
        </mxCell>
        <mxCell id="4HQ57-9MTVag5sjAasVg-9" value="ELF P&lt;span style=&quot;color: rgb(32, 33, 34); font-family: sans-serif; font-size: 14px; text-align: start; background-color: rgb(255, 255, 255);&quot;&gt;rogram Header&lt;/span&gt;" style="rounded=0;whiteSpace=wrap;html=1;fillColor=#fff2cc;strokeColor=#d6b656;" vertex="1" parent="1">
          <mxGeometry x="140" y="730" width="340" height="50" as="geometry" />
        </mxCell>
        <mxCell id="4HQ57-9MTVag5sjAasVg-10" value="......" style="rounded=0;whiteSpace=wrap;html=1;fillColor=#fff2cc;strokeColor=#d6b656;" vertex="1" parent="1">
          <mxGeometry x="140" y="780" width="340" height="50" as="geometry" />
        </mxCell>
        <mxCell id="4HQ57-9MTVag5sjAasVg-11" value="" style="shape=curlyBracket;whiteSpace=wrap;html=1;rounded=1;flipH=1;labelPosition=right;verticalLabelPosition=middle;align=left;verticalAlign=middle;" vertex="1" parent="1">
          <mxGeometry x="480" y="680" width="20" height="150" as="geometry" />
        </mxCell>
        <mxCell id="4HQ57-9MTVag5sjAasVg-12" value="N" style="text;html=1;align=center;verticalAlign=middle;whiteSpace=wrap;rounded=0;" vertex="1" parent="1">
          <mxGeometry x="500" y="740" width="40" height="30" as="geometry" />
        </mxCell>
      </root>
    </mxGraphModel>
  </diagram>
</mxfile>
